<svg width="67" height="67" viewBox="0 0 67 67" fill="none" xmlns="http://www.w3.org/2000/svg">
<path d="M13.9583 54.438V17.3089C13.9583 14.1819 13.9583 12.6173 14.5669 11.4229C15.1022 10.3724 15.9557 9.51884 17.0063 8.98355C18.2006 8.375 19.7653 8.375 22.8922 8.375H48.5755C50.139 8.375 50.9219 8.375 51.519 8.67927C52.0443 8.94692 52.4687 9.37368 52.7363 9.89897C53.0406 10.4961 53.0417 11.2785 53.0417 12.8419V45.7836C53.0417 47.3471 53.0406 48.1277 52.7363 48.7249C52.4687 49.2502 52.0449 49.6784 51.5196 49.946C50.923 50.25 50.1411 50.25 48.5807 50.25H20.2396C16.7705 50.25 13.9583 53.0622 13.9583 56.5313C13.9583 57.6876 14.8957 58.625 16.0521 58.625H45.789C47.3494 58.625 48.1313 58.625 48.7279 58.321C49.2532 58.0534 49.677 57.6255 49.9447 57.1002C50.2489 56.503 50.25 55.7218 50.25 54.1583V50.25" stroke="#020202" stroke-width="2" stroke-linecap="round" stroke-linejoin="round"/>
</svg>
