<svg width="67" height="67" viewBox="0 0 67 67" fill="none" xmlns="http://www.w3.org/2000/svg">
<path d="M33.5 27.3578V55.8328M33.5 27.3578C33.5 22.6674 33.5 20.3231 34.4128 18.5316C35.2158 16.9557 36.496 15.6741 38.0719 14.8712C39.8634 13.9583 42.209 13.9583 46.8995 13.9583H54.1578C55.7213 13.9583 56.5036 13.9583 57.1007 14.2626C57.626 14.5303 58.052 14.957 58.3197 15.4823C58.6239 16.0795 58.625 16.8618 58.625 18.4253V42.9919C58.625 44.5554 58.6239 45.3361 58.3197 45.9333C58.052 46.4585 57.6269 46.8867 57.1016 47.1544C56.5051 47.4583 55.7244 47.4583 54.164 47.4583H46.2561C43.6341 47.4583 42.3207 47.4583 41.1307 47.8197C40.0772 48.1397 39.0992 48.6635 38.2486 49.3626C37.2878 50.1523 36.5597 51.2431 35.1053 53.4247L33.5 55.8328M33.5 27.3578C33.5 22.6674 33.4995 20.3231 32.5867 18.5316C31.7838 16.9557 30.5025 15.6741 28.9266 14.8712C27.1351 13.9583 24.7893 13.9583 20.0989 13.9583H12.8406C11.2771 13.9583 10.4961 13.9583 9.89897 14.2626C9.37368 14.5303 8.94692 14.957 8.67927 15.4823C8.375 16.0795 8.375 16.8618 8.375 18.4253V42.9919C8.375 44.5554 8.375 45.3361 8.67927 45.9333C8.94692 46.4585 9.37368 46.8867 9.89897 47.1544C10.4956 47.4583 11.2756 47.4583 12.836 47.4583H20.7441C23.3661 47.4583 24.6767 47.4583 25.8667 47.8197C26.9202 48.1397 27.903 48.6635 28.7536 49.3626C29.7105 50.1491 30.434 51.2343 31.8766 53.3982L33.5 55.8328" stroke="#020202" stroke-width="2" stroke-linecap="round" stroke-linejoin="round"/>
</svg>
