<svg width="67" height="67" viewBox="0 0 67 67" fill="none" xmlns="http://www.w3.org/2000/svg">
<path d="M16.75 20.1005V46.58C16.75 50.3796 16.75 52.279 17.3198 53.4416C18.376 55.5964 20.6906 56.8349 23.0694 56.5184C24.3528 56.3476 25.9336 55.2938 29.095 53.1861L29.1026 53.1811C30.3557 52.3457 30.9823 51.9279 31.6378 51.6963C32.8418 51.2707 34.1554 51.2707 35.3593 51.6963C36.0161 51.9284 36.6452 52.3478 37.9033 53.1866C41.0648 55.2942 42.6473 56.3472 43.9307 56.5179C46.3095 56.8344 48.6241 55.5964 49.6802 53.4416C50.25 52.2791 50.25 50.3789 50.25 46.58V20.0914C50.25 16.9705 50.25 15.4078 49.6421 14.2146C49.1068 13.164 48.2504 12.3105 47.1998 11.7752C46.0055 11.1667 44.4442 11.1667 41.3172 11.1667H25.6839C22.5569 11.1667 20.9923 11.1667 19.7979 11.7752C18.7474 12.3105 17.8938 13.164 17.3585 14.2146C16.75 15.4089 16.75 16.9736 16.75 20.1005Z" stroke="#020202" stroke-width="2" stroke-linecap="round" stroke-linejoin="round"/>
</svg>
